<?xml version="1.0" encoding="UTF-8" standalone="no"?>
<!-- Created with Inkscape (http://www.inkscape.org/) -->

<svg
   width="100.1548mm"
   height="129.32233mm"
   viewBox="0 0 100.1548 129.32233"
   version="1.1"
   id="svg1"
   inkscape:version="1.3.2 (091e20e, 2023-11-25, custom)"
   sodipodi:docname="checklist_background_0.1.0.svg"
   inkscape:export-filename="images\header_background_0.1.0.png"
   inkscape:export-xdpi="96"
   inkscape:export-ydpi="96"
   xml:space="preserve"
   xmlns:inkscape="http://www.inkscape.org/namespaces/inkscape"
   xmlns:sodipodi="http://sodipodi.sourceforge.net/DTD/sodipodi-0.dtd"
   xmlns="http://www.w3.org/2000/svg"
   xmlns:svg="http://www.w3.org/2000/svg"><sodipodi:namedview
     id="namedview1"
     pagecolor="#ffffff"
     bordercolor="#000000"
     borderopacity="0.25"
     inkscape:showpageshadow="false"
     inkscape:pageopacity="0.0"
     inkscape:pagecheckerboard="0"
     inkscape:deskcolor="#d1d1d1"
     inkscape:document-units="mm"
     showborder="false"
     borderlayer="false"
     inkscape:zoom="0.3535534"
     inkscape:cx="-828.72913"
     inkscape:cy="739.63367"
     inkscape:window-width="1920"
     inkscape:window-height="991"
     inkscape:window-x="-9"
     inkscape:window-y="-9"
     inkscape:window-maximized="1"
     inkscape:current-layer="layer1" /><defs
     id="defs1"><rect
       x="695.08594"
       y="1399.3643"
       width="295.57062"
       height="53.033009"
       id="rect26" /><rect
       x="695.08594"
       y="1399.3643"
       width="295.57062"
       height="53.033009"
       id="rect27" /><rect
       x="629.32501"
       y="1917.6735"
       width="253.85132"
       height="29.344929"
       id="rect36" /><rect
       x="629.32501"
       y="1917.6735"
       width="272.23611"
       height="29.698481"
       id="rect37" /><rect
       x="629.32501"
       y="1917.6735"
       width="229.80969"
       height="30.405588"
       id="rect38" /><rect
       x="629.32501"
       y="1917.6735"
       width="255.61909"
       height="29.344929"
       id="rect39" /><rect
       x="629.32501"
       y="1917.6735"
       width="272.23611"
       height="29.698481"
       id="rect42" /><rect
       x="629.32501"
       y="1917.6735"
       width="272.23611"
       height="29.698481"
       id="rect43" /></defs><g
     inkscape:label="Layer 1"
     inkscape:groupmode="layer"
     id="layer1"
     transform="translate(-698.83559,-174.9434)"><path
       id="path1"
       style="opacity:1;fill:#3a9d5d;fill-opacity:1;stroke:#3a9d5d;stroke-width:0.264583;stroke-opacity:1"
       d="m 786.66568,175.07717 c -0.5758,-0.005 -1.15171,0.004 -1.72651,0.0114 h -5.2e-4 c -25.14114,0.009 -50.28361,-0.0416 -75.42382,0.0382 -4.82651,0.34904 -9.21342,4.11623 -10.23193,8.90333 -0.567,3.03459 -0.16766,6.13416 -0.29146,9.19841 0.009,33.42844 -0.028,66.85818 0.0372,100.28586 0.10465,1.46907 0.4711,2.77466 1.08469,4.03645 1.65921,3.40308 4.91891,5.96012 8.71161,6.41925 2.82506,0.32721 5.6735,0.0428 8.50904,0.14366 23.65859,-0.0111 47.31843,0.0404 70.97603,-0.0424 4.06327,-0.29172 7.80647,-3.01948 9.47849,-6.64455 1.58318,-3.33172 0.88991,-7.10323 1.0449,-10.65517 0.002,-33.66387 0.008,-67.32828 -0.0284,-100.99177 -0.28794,-5.43192 -4.95575,-10.28503 -10.41487,-10.62622 -0.57317,-0.0517 -1.14864,-0.0713 -1.72444,-0.0765 z m 0.96273,4.75061 c 2.416,0.13946 4.70055,1.65188 5.77329,3.83336 0.86771,1.54879 0.5188,3.36307 0.6103,5.05447 0.0825,34.38501 0.0592,68.76984 0.0481,103.15495 0.4093,3.44049 -2.24307,6.94144 -5.69164,7.39748 -25.80652,0.1234 -51.61338,0.0983 -77.42008,0.0636 -3.36699,0.3116 -6.64642,-2.36773 -7.11482,-5.69319 -0.0709,-13.30439 -0.0645,-26.61299 -0.0749,-39.91901 0.008,-22.17693 -0.0293,-44.35394 0.008,-66.53083 -0.35146,-3.38565 2.2834,-6.75417 5.64203,-7.25278 17.37668,-0.1322 34.75903,-0.0717 52.1379,-0.0837 8.34715,0.003 16.69489,-0.056 25.04188,0.002 0.34736,-0.0382 0.69511,-0.0463 1.04025,-0.0264 z" /><text
       xml:space="preserve"
       transform="matrix(0.28488376,0,0,0.33616306,510.10436,-289.82764)"
       id="text3"
       style="font-size:37.3333px;line-height:1.5;white-space:pre;shape-inside:url(#rect26);display:inline;opacity:1;fill:#3a9d5d;fill-opacity:1;stroke:#3a9d5d;stroke-width:1.00157;stroke-dasharray:none;stroke-opacity:1"><tspan
         x="695.08594"
         y="1438.0902"
         id="tspan4"><tspan
           style="font-style:italic;font-weight:bold;font-family:'Comic Sans MS';-inkscape-font-specification:'Comic Sans MS Bold Italic'"
           id="tspan1">Safety Timeout</tspan></tspan></text><g
       id="g4"
       transform="matrix(0.58412385,0,0,0.58412385,634.89411,-7.1168803)"
       style="fill:#3a9d5d;fill-opacity:1;stroke:#3a9d5d;stroke-opacity:1"><rect
         style="opacity:1;fill:#3a9d5d;fill-opacity:1;stroke:#3a9d5d;stroke-width:0.264583;stroke-opacity:1"
         id="rect3"
         width="10.289877"
         height="5.051394"
         x="377.28342"
         y="190.10936"
         ry="2.525697"
         transform="rotate(44.795453)" /><rect
         style="opacity:1;fill:#3a9d5d;fill-opacity:1;stroke:#3a9d5d;stroke-width:0.264583;stroke-opacity:1"
         id="rect4"
         width="4.864305"
         height="14.780005"
         x="347.00229"
         y="239.15115"
         ry="2.4321525"
         transform="rotate(35.573446)" /></g><rect
       style="opacity:1;fill:#3a9d5d;fill-opacity:1;stroke:#3a9d5d;stroke-width:0.24852;stroke-dasharray:none;stroke-opacity:1"
       id="rect12"
       width="69.921837"
       height="1.0804179"
       x="713.95203"
       y="198.8073"
       ry="0.54020894" /><text
       xml:space="preserve"
       transform="matrix(0.28488376,0,0,0.33616306,519.72214,-267.60263)"
       id="text13"
       style="font-size:37.3333px;line-height:1.5;white-space:pre;shape-inside:url(#rect27);display:inline;opacity:1;fill:#3a9d5d;fill-opacity:1;stroke:#3a9d5d;stroke-width:1.00157;stroke-dasharray:none;stroke-opacity:1"><tspan
         x="695.08594"
         y="1438.0902"
         id="tspan6"><tspan
           style="font-style:italic;font-weight:bold;font-family:'Comic Sans MS';-inkscape-font-specification:'Comic Sans MS Bold Italic'"
           id="tspan5">Risk-Assess</tspan></tspan></text><text
       xml:space="preserve"
       transform="matrix(0.26458333,0,0,0.26458333,558.33902,-223.15735)"
       id="text17"
       style="font-style:italic;font-variant:normal;font-weight:bold;font-stretch:normal;font-size:8px;line-height:1.5;font-family:'Comic Sans MS';-inkscape-font-specification:'Comic Sans MS Bold Italic';white-space:pre;shape-inside:url(#rect36);display:inline;opacity:1;fill:#3a9d5d;fill-opacity:1;stroke:#3a9d5d;stroke-width:1.00157;stroke-dasharray:none;stroke-opacity:1"><tspan
         x="629.32422"
         y="1925.6248"
         id="tspan7">Lorem ipsum dolor sit amet, consectetur adipiscing elit. Nulla </tspan><tspan
         x="629.32422"
         y="1937.6248"
         id="tspan8">quis diam lectus. Suspendisse potenti. Proin eget vestibulum </tspan><tspan
         x="629.32422"
         y="1954.9685"
         id="tspan10"><tspan
           dx="0 4.4726562 3.84375 4.4453125 3.7695312"
           id="tspan9">erat.</tspan></tspan></text><text
       xml:space="preserve"
       transform="matrix(0.26458333,0,0,0.26458333,558.30388,-256.47206)"
       id="text18"
       style="font-style:italic;font-variant:normal;font-weight:bold;font-stretch:normal;font-size:8px;line-height:1.5;font-family:'Comic Sans MS';-inkscape-font-specification:'Comic Sans MS Bold Italic';white-space:pre;shape-inside:url(#rect37);display:inline;opacity:1;fill:#3a9d5d;fill-opacity:1;stroke:#3a9d5d;stroke-width:1.00157;stroke-dasharray:none;stroke-opacity:1"><tspan
         x="629.32422"
         y="1925.6248"
         id="tspan11">Suspendisse potenti. Proin eget vestibulum erat.</tspan></text><text
       xml:space="preserve"
       transform="matrix(0.26458333,0,0,0.26458333,558.35865,-267.55826)"
       id="text20"
       style="font-style:italic;font-variant:normal;font-weight:bold;font-stretch:normal;font-size:8px;line-height:1.5;font-family:'Comic Sans MS';-inkscape-font-specification:'Comic Sans MS Bold Italic';white-space:pre;shape-inside:url(#rect38);display:inline;opacity:1;fill:#3a9d5d;fill-opacity:1;stroke:#3a9d5d;stroke-width:1.00157;stroke-dasharray:none;stroke-opacity:1"><tspan
         x="629.32422"
         y="1925.6248"
         id="tspan12">Nulla nec mauris urna. Ut in lectus eget ligula hendrerit </tspan></text><text
       xml:space="preserve"
       transform="matrix(0.26458333,0,0,0.26458333,558.2584,-281.59311)"
       id="text22"
       style="font-style:italic;font-variant:normal;font-weight:bold;font-stretch:normal;font-size:8px;line-height:1.5;font-family:'Comic Sans MS';-inkscape-font-specification:'Comic Sans MS Bold Italic';white-space:pre;shape-inside:url(#rect39);display:inline;opacity:1;fill:#3a9d5d;fill-opacity:1;stroke:#3a9d5d;stroke-width:1.00157;stroke-dasharray:none;stroke-opacity:1"><tspan
         x="629.32422"
         y="1925.6248"
         id="tspan13">Vestibulum viverra erat ac efficitur aliquet. Donec ac lorem </tspan><tspan
         x="629.32422"
         y="1937.6248"
         id="tspan14">ultricies,</tspan></text><rect
       style="opacity:1;fill:#3a9d5d;fill-opacity:1;stroke:#3a9d5d;stroke-width:0.234602;stroke-dasharray:none;stroke-opacity:1"
       id="rect22"
       width="61.516766"
       height="1.0943362"
       x="718.1546"
       y="201.04539"
       ry="0.54716808" /><rect
       style="opacity:1;fill:#3a9d5d;fill-opacity:1;stroke:#3a9d5d;stroke-width:0.211954;stroke-dasharray:none;stroke-opacity:1"
       id="rect23"
       width="50.31456"
       height="1.0921181"
       x="723.75568"
       y="218.62071"
       ry="0.54605907" /><rect
       style="opacity:1;fill:#3a9d5d;fill-opacity:1;stroke:#3a9d5d;stroke-width:0.200083;stroke-dasharray:none;stroke-opacity:1"
       id="rect24"
       width="44.266415"
       height="1.1061871"
       x="726.77979"
       y="220.88304"
       ry="0.55309355" /><g
       id="g41"
       transform="matrix(0.58412385,0,0,0.58412385,634.89411,4.59487)"
       style="fill:#3a9d5d;fill-opacity:1;stroke:#3a9d5d;stroke-opacity:1"><rect
         style="opacity:1;fill:#3a9d5d;fill-opacity:1;stroke:#3a9d5d;stroke-width:0.264583;stroke-opacity:1"
         id="rect40"
         width="10.289877"
         height="5.051394"
         x="377.28342"
         y="190.10936"
         ry="2.525697"
         transform="rotate(44.795453)" /><rect
         style="opacity:1;fill:#3a9d5d;fill-opacity:1;stroke:#3a9d5d;stroke-width:0.264583;stroke-opacity:1"
         id="rect41"
         width="4.864305"
         height="14.780005"
         x="347.00229"
         y="239.15115"
         ry="2.4321525"
         transform="rotate(35.573446)" /></g><text
       xml:space="preserve"
       transform="matrix(0.26458333,0,0,0.26458333,558.30388,-245.36623)"
       id="text41"
       style="font-style:italic;font-variant:normal;font-weight:bold;font-stretch:normal;font-size:8px;line-height:1.5;font-family:'Comic Sans MS';-inkscape-font-specification:'Comic Sans MS Bold Italic';white-space:pre;shape-inside:url(#rect42);display:inline;opacity:1;fill:#3a9d5d;fill-opacity:1;stroke:#3a9d5d;stroke-width:1.00157;stroke-dasharray:none;stroke-opacity:1"><tspan
         x="629.32422"
         y="1925.6248"
         id="tspan15">SNemo enim ipsam voluptatem quia voluptas sit aspernatur aut</tspan></text><text
       xml:space="preserve"
       transform="matrix(0.25428248,0,0,0.26485202,564.78774,-234.77865)"
       id="text42"
       style="font-style:italic;font-variant:normal;font-weight:bold;font-stretch:normal;font-size:8px;line-height:1.5;font-family:'Comic Sans MS';-inkscape-font-specification:'Comic Sans MS Bold Italic';white-space:pre;shape-inside:url(#rect43);display:inline;opacity:1;fill:#3a9d5d;fill-opacity:1;stroke:#3a9d5d;stroke-width:1.00157;stroke-dasharray:none;stroke-opacity:1"><tspan
         x="629.32422"
         y="1925.6248"
         id="tspan16">Excepteur sint occaecat cupidatat non proident, sunt in.</tspan></text><g
       id="g46"
       transform="matrix(0.58412385,0,0,0.58412385,634.89411,16.30662)"
       style="fill:#3a9d5d;fill-opacity:1;stroke:#3a9d5d;stroke-opacity:1"><rect
         style="opacity:1;fill:#3a9d5d;fill-opacity:1;stroke:#3a9d5d;stroke-width:0.264583;stroke-opacity:1"
         id="rect45"
         width="10.289877"
         height="5.051394"
         x="377.28342"
         y="190.10936"
         ry="2.525697"
         transform="rotate(44.795453)" /><rect
         style="opacity:1;fill:#3a9d5d;fill-opacity:1;stroke:#3a9d5d;stroke-width:0.264583;stroke-opacity:1"
         id="rect46"
         width="4.864305"
         height="14.780005"
         x="347.00229"
         y="239.15115"
         ry="2.4321525"
         transform="rotate(35.573446)" /></g><g
       id="g66"
       transform="matrix(0.58412385,0,0,0.58412385,634.89411,28.01837)"
       style="fill:#3a9d5d;fill-opacity:1;stroke:#3a9d5d;stroke-opacity:1"><rect
         style="opacity:1;fill:#3a9d5d;fill-opacity:1;stroke:#3a9d5d;stroke-width:0.264583;stroke-opacity:1"
         id="rect48"
         width="10.289877"
         height="5.051394"
         x="377.28342"
         y="190.10936"
         ry="2.525697"
         transform="rotate(44.795453)" /><rect
         style="opacity:1;fill:#3a9d5d;fill-opacity:1;stroke:#3a9d5d;stroke-width:0.264583;stroke-opacity:1"
         id="rect66"
         width="4.864305"
         height="14.780005"
         x="347.00229"
         y="239.15115"
         ry="2.4321525"
         transform="rotate(35.573446)" /></g><g
       id="g68"
       transform="matrix(0.58412385,0,0,0.58412385,634.89411,39.730121)"
       style="fill:#3a9d5d;fill-opacity:1;stroke:#3a9d5d;stroke-opacity:1"><rect
         style="opacity:1;fill:#3a9d5d;fill-opacity:1;stroke:#3a9d5d;stroke-width:0.264583;stroke-opacity:1"
         id="rect67"
         width="10.289877"
         height="5.051394"
         x="377.28342"
         y="190.10936"
         ry="2.525697"
         transform="rotate(44.795453)" /><rect
         style="opacity:1;fill:#3a9d5d;fill-opacity:1;stroke:#3a9d5d;stroke-width:0.264583;stroke-opacity:1"
         id="rect68"
         width="4.864305"
         height="14.780005"
         x="347.00229"
         y="239.15115"
         ry="2.4321525"
         transform="rotate(35.573446)" /></g><g
       id="g88"
       transform="matrix(0.58412385,0,0,0.58412385,634.89411,51.441871)"
       style="fill:#3a9d5d;fill-opacity:1;stroke:#3a9d5d;stroke-opacity:1"><rect
         style="opacity:1;fill:#3a9d5d;fill-opacity:1;stroke:#3a9d5d;stroke-width:0.264583;stroke-opacity:1"
         id="rect87"
         width="10.289877"
         height="5.051394"
         x="377.28342"
         y="190.10936"
         ry="2.525697"
         transform="rotate(44.795453)" /><rect
         style="opacity:1;fill:#3a9d5d;fill-opacity:1;stroke:#3a9d5d;stroke-width:0.264583;stroke-opacity:1"
         id="rect88"
         width="4.864305"
         height="14.780005"
         x="347.00229"
         y="239.15115"
         ry="2.4321525"
         transform="rotate(35.573446)" /></g></g></svg>
