<?xml version="1.0" encoding="UTF-8" standalone="no"?>
<!-- Created with Inkscape (http://www.inkscape.org/) -->

<svg
   width="31.525555mm"
   height="34.919308mm"
   viewBox="0 0 31.525555 34.919308"
   version="1.1"
   id="svg1"
   xml:space="preserve"
   xmlns:xlink="http://www.w3.org/1999/xlink"
   xmlns="http://www.w3.org/2000/svg"
   xmlns:svg="http://www.w3.org/2000/svg"><defs
     id="defs1"><linearGradient
       id="linearGradient23"><stop
         style="stop-color:#c7c4a7;stop-opacity:1;"
         offset="0"
         id="stop23" /><stop
         style="stop-color:#e7e5d8;stop-opacity:1;"
         offset="0.62188363"
         id="stop25" /><stop
         style="stop-color:#d0ccb2;stop-opacity:1;"
         offset="1"
         id="stop24" /></linearGradient><linearGradient
       id="linearGradient22"><stop
         style="stop-color:#455556;stop-opacity:1;"
         offset="0"
         id="stop20" /><stop
         style="stop-color:#567272;stop-opacity:1;"
         offset="0.10110804"
         id="stop21" /><stop
         style="stop-color:#4c5c5c;stop-opacity:1;"
         offset="1"
         id="stop22" /></linearGradient><linearGradient
       id="linearGradient16"><stop
         style="stop-color:#455556;stop-opacity:1;"
         offset="0"
         id="stop16" /><stop
         style="stop-color:#617b7b;stop-opacity:1;"
         offset="0"
         id="stop19" /><stop
         style="stop-color:#4e5f5f;stop-opacity:1;"
         offset="1"
         id="stop17" /></linearGradient><linearGradient
       xlink:href="#linearGradient22"
       id="linearGradient17"
       x1="66.692574"
       y1="54.101349"
       x2="82.474075"
       y2="54.101349"
       gradientUnits="userSpaceOnUse"
       gradientTransform="translate(-11.973675,94.199144)" /><linearGradient
       xlink:href="#linearGradient16"
       id="linearGradient19"
       gradientUnits="userSpaceOnUse"
       x1="66.692574"
       y1="54.101349"
       x2="82.474075"
       y2="54.101349"
       gradientTransform="matrix(-1,0,0,1,121.44893,94.199144)" /><linearGradient
       xlink:href="#linearGradient23"
       id="linearGradient24"
       x1="41.137142"
       y1="148.35732"
       x2="68.30069"
       y2="148.35732"
       gradientUnits="userSpaceOnUse" /></defs><g
     id="layer1"
     transform="translate(-38.974851,-130.84085)"><g
       id="g25"><path
         style="fill:url(#linearGradient24);fill-opacity:1;stroke-width:0.264583"
         d="m 41.137143,138.32302 13.852057,-5.40568 13.311491,5.40568 -0.337857,9.86536 -5.540822,9.93294 -7.905808,5.67597 -8.513947,-6.7571 -4.054261,-8.10852 z"
         id="path12" /><path
         id="path3"
         style="fill:url(#linearGradient17);stroke-width:0.264583"
         d="m 54.718896,130.84084 v 3.5419 c 2.636528,1.23218 5.279046,2.35763 6.362919,2.8422 1.087662,0.48627 5.996533,2.12649 5.996533,2.12649 0,0 0.13436,2.77665 -0.14366,4.70617 -0.27802,1.92952 -0.652606,4.3456 -1.767851,6.76083 -1.115245,2.41522 -3.350723,5.50542 -5.136121,7.3582 -1.38219,1.43436 -4.121979,3.25183 -5.31182,4.01475 v 3.56877 c 0.659182,-0.35209 3.029576,-1.62253 4.02146,-2.27996 1.13482,-0.75217 1.848173,-1.38195 2.938839,-2.389 1.090666,-1.00706 2.353442,-2.07602 3.535701,-3.70314 1.182259,-1.62712 2.456132,-3.90938 3.296957,-6.1159 0.840824,-2.20653 1.367424,-4.84085 1.672249,-7.02335 0.304829,-2.1825 0.382403,-5.17156 0.262516,-5.99653 -0.119887,-0.82497 -0.212619,-0.8925 -0.355534,-1.0511 -0.142914,-0.1586 -0.191279,-0.25636 -1.247469,-0.75913 -1.05619,-0.50276 -4.29593,-1.4714 -6.758642,-2.4423 -1.665634,-0.65666 -4.855331,-2.34295 -7.366077,-3.1589 z" /><path
         style="fill:#22944c;fill-opacity:1;stroke-width:0.0675711"
         d="m 53.367496,153.72169 c -0.03716,-0.015 -0.706115,-0.65271 -1.486562,-1.41714 -0.780444,-0.76443 -2.18772,-2.12492 -3.12728,-3.0233 -0.939559,-0.89839 -1.714359,-1.61874 -1.747607,-1.78678 -0.04558,-0.23035 7.94e-4,-0.25158 0.04958,-0.37164 0.115202,-0.28288 2.315922,-2.52342 2.643447,-2.69129 0.325501,-0.16683 0.74975,-0.16325 1.106244,0.009 0.26343,0.12752 0.565134,0.41624 1.931659,1.84849 0.435655,0.45661 0.533051,0.5275 0.675571,0.49173 0.244833,-0.0614 1.538656,-1.25769 2.353718,-2.1762 0.390221,-0.43975 0.952751,-1.07299 1.250063,-1.40721 0.783381,-0.88063 1.893274,-1.86535 2.116641,-1.87794 0.588557,-0.0332 0.901679,0.13851 1.839748,1.00876 0.628163,0.58274 1.551485,1.66366 1.714445,2.00707 0.05857,0.12342 0.106486,0.36267 0.106486,0.53165 0,0.26957 -0.04148,0.35709 -0.338288,0.71374 -0.970068,1.16565 -7.890949,7.69255 -8.468812,7.98671 -0.245774,0.12511 -0.521015,0.19359 -0.619056,0.15402 z"
         id="path6" /><path
         style="fill:#20994e;fill-opacity:1;stroke-width:0.0617649"
         d="m 53.558489,153.14257 c -0.03425,-0.0136 -0.650792,-0.59172 -1.370093,-1.28471 -0.719298,-0.693 -2.016318,-1.92635 -2.882267,-2.74079 -0.865948,-0.81444 -1.580044,-1.46748 -1.610687,-1.61981 -0.042,-0.20882 7.3e-4,-0.22807 0.0457,-0.33691 0.106172,-0.25644 2.134477,-2.28762 2.436341,-2.4398 0.299999,-0.15124 0.691009,-0.148 1.019572,0.008 0.242792,0.11561 0.520858,0.37734 1.780322,1.67575 0.401522,0.41394 0.491288,0.47821 0.622641,0.44578 0.225651,-0.0557 1.418107,-1.14016 2.169311,-1.97284 0.35965,-0.39866 0.878105,-0.97272 1.152125,-1.27571 0.722005,-0.79833 1.744942,-1.69104 1.950809,-1.70245 0.542444,-0.0301 0.831034,0.12557 1.695609,0.91449 0.578948,0.52829 1.42993,1.5082 1.580124,1.81952 0.05397,0.11189 0.09815,0.32877 0.09815,0.48197 0,0.24437 -0.03824,0.32372 -0.311784,0.64704 -0.894067,1.05673 -7.272718,6.97372 -7.805306,7.24039 -0.226518,0.11342 -0.480195,0.1755 -0.570556,0.13963 z"
         id="path13" /><path
         style="fill:#249c50;fill-opacity:1;stroke-width:0.0514504"
         d="m 53.444171,152.4343 c -0.02829,-0.0114 -0.537655,-0.49699 -1.131908,-1.07905 -0.594251,-0.58206 -1.665789,-1.61797 -2.381195,-2.30202 -0.715405,-0.68406 -1.305358,-1.23256 -1.330674,-1.3605 -0.03471,-0.1754 6.04e-4,-0.19156 0.03775,-0.28298 0.08772,-0.21539 1.763405,-1.9214 2.012791,-2.04922 0.247846,-0.12702 0.57088,-0.1243 0.842324,0.007 0.200583,0.0971 0.430308,0.31694 1.470817,1.40749 0.331719,0.34767 0.405879,0.40165 0.514398,0.37441 0.186422,-0.0468 1.171573,-0.95763 1.792183,-1.65701 0.297125,-0.33484 0.72545,-0.817 0.951832,-1.07149 0.596487,-0.67053 1.441589,-1.42032 1.611667,-1.42991 0.448143,-0.0253 0.686562,0.10547 1.400833,0.76809 0.4783,0.44372 1.181342,1.26676 1.305424,1.52825 0.0446,0.094 0.08108,0.27614 0.08108,0.40481 0,0.20525 -0.03158,0.27189 -0.257582,0.54345 -0.738636,0.88757 -6.008379,5.85732 -6.44838,6.0813 -0.187139,0.0953 -0.396714,0.14741 -0.471365,0.11728 z"
         id="path14" /><path
         id="path19"
         style="fill:url(#linearGradient19);stroke-width:0.264583"
         d="m 54.756357,130.84084 v 3.5419 c -2.636528,1.23218 -5.279046,2.35763 -6.362919,2.8422 -1.087662,0.48627 -5.996533,2.12649 -5.996533,2.12649 0,0 -0.13436,2.77665 0.14366,4.70617 0.27802,1.92952 0.652606,4.3456 1.767851,6.76083 1.115245,2.41522 3.350723,5.50542 5.136121,7.3582 1.38219,1.43436 4.121979,3.25183 5.31182,4.01475 v 3.56877 c -0.659182,-0.35209 -3.029576,-1.62253 -4.02146,-2.27996 -1.13482,-0.75217 -1.848173,-1.38195 -2.938839,-2.389 -1.090666,-1.00706 -2.353442,-2.07602 -3.535701,-3.70314 -1.182259,-1.62712 -2.456132,-3.90938 -3.296957,-6.1159 -0.840824,-2.20653 -1.367424,-4.84085 -1.672249,-7.02335 -0.304829,-2.1825 -0.382403,-5.17156 -0.262516,-5.99653 0.119887,-0.82497 0.212619,-0.8925 0.355534,-1.0511 0.142914,-0.1586 0.191279,-0.25636 1.247469,-0.75913 1.05619,-0.50276 4.29593,-1.4714 6.758642,-2.4423 1.665634,-0.65666 4.855331,-2.34295 7.366077,-3.1589 z" /></g></g></svg>
